{
    "accessors": {
        "accessor_16": {
            "bufferView": "bufferView_22",
            "byteOffset": 0,
            "byteStride": 0,
            "componentType": 5123,
            "count": 17556,
            "type": "SCALAR"
        },
        "accessor_18": {
            "bufferView": "bufferView_23",
            "byteOffset": 0,
            "byteStride": 12,
            "componentType": 5126,
            "count": 2928,
            "max": [
                0.116226,
                0.116179,
                0.116163
            ],
            "min": [
                0.000703797,
                0.00053902,
                0.000664602
            ],
            "type": "VEC3"
        },
        "accessor_20": {
            "bufferView": "bufferView_23",
            "byteOffset": 35136,
            "byteStride": 12,
            "componentType": 5126,
            "count": 2928,
            "max": [
                0.998983,
                1,
                0.999191
            ],
            "min": [
                -0.998983,
                -1,
                -0.998359
            ],
            "type": "VEC3"
        }
    },
    "animations": {},
    "asset": {
        "generator": "collada2gltf@cf6371beb0bdc18ba603378d5e40c966da53d385",
        "premultipliedAlpha": true,
        "profile": {
            "api": "WebGL",
            "version": "1.0.2"
        },
        "version": "1.0"
    },
    "bufferViews": {
        "bufferView_22": {
            "buffer": "\\Users\\14237\\Desktop\\Ball",
            "byteLength": 35112,
            "byteOffset": 0,
            "target": 34963
        },
        "bufferView_23": {
            "buffer": "\\Users\\14237\\Desktop\\Ball",
            "byteLength": 70272,
            "byteOffset": 35112,
            "target": 34962
        }
    },
    "buffers": {
        "\\Users\\14237\\Desktop\\Ball": {
            "byteLength": 105384,
            "type": "arraybuffer",
            "uri": "data:application/octet-stream;base64,"
        }
    },
    "cameras": {
        "ID1": {
            "name": "skp_camera_Last_Saved_SketchUp_View",
            "perspective": {
                "aspect_ratio": 0,
                "yfov": 0.610865,
                "zfar": 25.4,
                "znear": 0.0254
            },
            "type": "perspective"
        }
    },
    "materials": {
        "ID6": {
            "name": "material",
            "technique": "technique0",
            "values": {
                "diffuse": [
                    1,
                    1,
                    1,
                    1
                ]
            }
        }
    },
    "meshes": {
        "ID5": {
            "name": "ID5",
            "primitives": [
                {
                    "attributes": {
                        "NORMAL": "accessor_20",
                        "POSITION": "accessor_18"
                    },
                    "indices": "accessor_16",
                    "material": "ID6",
                    "mode": 4
                }
            ]
        }
    },
    "nodes": {
        "ID3": {
            "children": [
                "ID4"
            ],
            "matrix": [
                597.332,
                0,
                0,
                0,
                0,
                597.332,
                0,
                0,
                0,
                0,
                597.332,
                0,
                -31.2306,
                -38.4392,
                -0.396323,
                1
            ],
            "name": "instance_0"
        },
        "ID4": {
            "children": [],
            "matrix": [
                1,
                0,
                0,
                0,
                0,
                1,
                0,
                0,
                0,
                0,
                1,
                0,
                0,
                0,
                0,
                1
            ],
            "meshes": [
                "ID5"
            ],
            "name": "uploads_files_91521_GLOBE.STL"
        },
        "node_0": {
            "children": [
                "node_1",
                "ID3"
            ],
            "matrix": [
                1,
                0,
                0,
                0,
                0,
                1,
                0,
                0,
                0,
                0,
                1,
                0,
                0,
                0,
                0,
                1
            ],
            "name": "SketchUp"
        },
        "node_1": {
            "camera": "ID1",
            "children": [],
            "matrix": [
                0.94587,
                0.324547,
                2.77556e-017,
                0,
                -0.164916,
                0.480638,
                0.861272,
                0,
                0.279523,
                -0.814651,
                0.508144,
                0,
                132.202,
                -395.623,
                249.504,
                1
            ],
            "name": "skp_camera_Last_Saved_SketchUp_View"
        },
        "node_4": {
            "children": [
                "node_0"
            ],
            "matrix": [
                1,
                0,
                0,
                0,
                0,
                0,
                -1,
                0,
                0,
                1,
                0,
                0,
                0,
                0,
                0,
                1
            ],
            "name": "Y_UP_Transform"
        }
    },
    "programs": {
        "program_0": {
            "attributes": [
                "a_normal",
                "a_position"
            ],
            "fragmentShader": "\\Users\\14237\\Desktop\\Ball0FS",
            "vertexShader": "\\Users\\14237\\Desktop\\Ball0VS"
        }
    },
    "scene": "defaultScene",
    "scenes": {
        "defaultScene": {
            "nodes": [
                "node_4"
            ]
        }
    },
    "shaders": {
        "\\Users\\14237\\Desktop\\Ball0FS": {
            "type": 35632,
            "uri": "data:text/plain;base64,"
        },
        "\\Users\\14237\\Desktop\\Ball0VS": {
            "type": 35633,
            "uri": "data:text/plain;base64,"
        }
    },
    "skins": {},
    "techniques": {
        "technique0": {
            "attributes": {
                "a_normal": "normal",
                "a_position": "position"
            },
            "parameters": {
                "diffuse": {
                    "type": 35666
                },
                "modelViewMatrix": {
                    "semantic": "MODELVIEW",
                    "type": 35676
                },
                "normal": {
                    "semantic": "NORMAL",
                    "type": 35665
                },
                "normalMatrix": {
                    "semantic": "MODELVIEWINVERSETRANSPOSE",
                    "type": 35675
                },
                "position": {
                    "semantic": "POSITION",
                    "type": 35665
                },
                "projectionMatrix": {
                    "semantic": "PROJECTION",
                    "type": 35676
                }
            },
            "program": "program_0",
            "states": {
                "enable": [
                    2929,
                    2884
                ]
            },
            "uniforms": {
                "u_diffuse": "diffuse",
                "u_modelViewMatrix": "modelViewMatrix",
                "u_normalMatrix": "normalMatrix",
                "u_projectionMatrix": "projectionMatrix"
            }
        }
    }
}